<?xml version="1.0" encoding="UTF-8"?>
<svg xmlns="http://www.w3.org/2000/svg" width="140" height="45" viewBox="26 29 68 22" version="1.1">
  <g id="surface1">
    <path style="stroke:none;fill-rule:nonzero;fill:rgb(7.843138%,41.568628%,99.607843%);fill-opacity:1;" d="M 68.75 32.109375 C 68.804688 32.109375 68.859375 32.109375 68.914062 32.109375 C 70.964844 32.140625 72.953125 32.640625 74.6875 33.75 C 74.816406 33.828125 74.949219 33.90625 75.078125 33.984375 C 75.03125 34.238281 74.941406 34.402344 74.789062 34.609375 C 74.746094 34.667969 74.703125 34.726562 74.660156 34.789062 C 74.613281 34.851562 74.570312 34.910156 74.523438 34.976562 C 74.476562 35.039062 74.429688 35.101562 74.382812 35.164062 C 74.074219 35.585938 73.761719 36 73.4375 36.40625 C 73.363281 36.367188 73.289062 36.328125 73.214844 36.285156 C 72.121094 35.710938 71.003906 35.277344 69.765625 35.15625 C 69.683594 35.148438 69.605469 35.140625 69.523438 35.128906 C 67.742188 34.964844 65.761719 35.011719 64.296875 36.171875 C 64.25 36.210938 64.199219 36.246094 64.152344 36.285156 C 63.558594 36.808594 63.109375 37.726562 63.046875 38.515625 C 62.976562 39.808594 63.125 40.910156 63.957031 41.960938 C 64.515625 42.5625 65.40625 43.089844 66.238281 43.136719 C 66.371094 43.136719 66.507812 43.128906 66.640625 43.121094 C 66.796875 43.125 66.796875 43.125 66.953125 43.28125 C 67.324219 43.320312 67.703125 43.3125 68.078125 43.3125 C 68.132812 43.308594 68.1875 43.308594 68.242188 43.308594 C 69.488281 43.308594 70.6875 43.191406 71.796875 42.578125 C 71.847656 42.550781 71.898438 42.527344 71.953125 42.5 C 71.953125 41.933594 71.953125 41.367188 71.953125 40.78125 C 70.535156 40.78125 69.117188 40.78125 67.65625 40.78125 C 67.539062 40.546875 67.566406 40.304688 67.566406 40.046875 C 67.566406 39.992188 67.566406 39.933594 67.566406 39.875 C 67.566406 39.757812 67.566406 39.636719 67.566406 39.515625 C 67.566406 39.332031 67.566406 39.148438 67.566406 38.960938 C 67.566406 38.847656 67.566406 38.730469 67.566406 38.613281 C 67.566406 38.558594 67.566406 38.503906 67.566406 38.445312 C 67.570312 38.054688 67.570312 38.054688 67.65625 37.96875 C 67.902344 37.960938 68.148438 37.957031 68.398438 37.960938 C 68.511719 37.960938 68.511719 37.960938 68.632812 37.960938 C 68.890625 37.960938 69.148438 37.960938 69.40625 37.960938 C 69.585938 37.960938 69.765625 37.960938 69.941406 37.960938 C 70.414062 37.960938 70.882812 37.960938 71.355469 37.964844 C 71.835938 37.964844 72.316406 37.964844 72.796875 37.964844 C 73.738281 37.964844 74.683594 37.96875 75.625 37.96875 C 75.742188 38.199219 75.714844 38.410156 75.714844 38.667969 C 75.714844 38.722656 75.714844 38.777344 75.71875 38.835938 C 75.71875 39.019531 75.71875 39.207031 75.71875 39.390625 C 75.71875 39.519531 75.71875 39.648438 75.71875 39.777344 C 75.722656 40.046875 75.722656 40.316406 75.722656 40.585938 C 75.722656 40.929688 75.722656 41.277344 75.726562 41.621094 C 75.726562 41.886719 75.726562 42.152344 75.726562 42.417969 C 75.730469 42.542969 75.730469 42.671875 75.730469 42.800781 C 75.730469 42.976562 75.730469 43.15625 75.730469 43.332031 C 75.730469 43.484375 75.730469 43.484375 75.730469 43.640625 C 75.695312 43.988281 75.578125 44.191406 75.328125 44.429688 C 72.511719 46.445312 68.472656 46.636719 65.167969 46.121094 C 64.542969 46.015625 63.953125 45.84375 63.359375 45.625 C 63.21875 45.574219 63.21875 45.574219 63.078125 45.523438 C 61.515625 44.910156 60.359375 43.785156 59.636719 42.277344 C 58.863281 40.480469 58.792969 38.242188 59.511719 36.410156 C 60.210938 34.796875 61.5 33.472656 63.132812 32.796875 C 64.191406 32.382812 65.300781 32.191406 66.429688 32.144531 C 66.507812 32.140625 66.582031 32.136719 66.660156 32.132812 C 67.355469 32.105469 68.050781 32.097656 68.75 32.109375 Z M 68.75 32.109375 "/>
    <path style="stroke:none;fill-rule:nonzero;fill:rgb(7.843138%,41.568628%,99.607843%);fill-opacity:1;" d="M 86.640625 32.109375 C 86.730469 32.109375 86.730469 32.109375 86.824219 32.113281 C 89.066406 32.160156 91.230469 32.816406 92.8125 34.453125 C 93.679688 35.367188 94.199219 36.507812 94.453125 37.734375 C 94.464844 37.792969 94.480469 37.855469 94.492188 37.914062 C 94.820312 39.757812 94.472656 41.714844 93.402344 43.25 C 92.242188 44.832031 90.515625 45.785156 88.601562 46.125 C 85.785156 46.550781 82.492188 46.492188 80.097656 44.746094 C 78.707031 43.679688 77.847656 42.234375 77.601562 40.488281 C 77.351562 38.496094 77.660156 36.65625 78.828125 35 C 80.179688 33.347656 81.886719 32.472656 83.984375 32.1875 C 84.058594 32.175781 84.132812 32.167969 84.210938 32.15625 C 85.015625 32.070312 85.832031 32.09375 86.640625 32.109375 Z M 82.734375 36.09375 C 82.683594 36.132812 82.636719 36.171875 82.585938 36.210938 C 81.847656 36.859375 81.535156 37.886719 81.421875 38.824219 C 81.347656 39.992188 81.648438 41.101562 82.398438 42.015625 C 83.234375 42.898438 84.398438 43.339844 85.597656 43.386719 C 87.152344 43.410156 88.414062 43.234375 89.585938 42.132812 C 90.347656 41.363281 90.699219 40.425781 90.722656 39.34375 C 90.691406 38.007812 90.265625 36.976562 89.308594 36.03125 C 87.5625 34.566406 84.4375 34.6875 82.734375 36.09375 Z M 82.734375 36.09375 "/>
    <path style="stroke:none;fill-rule:nonzero;fill:rgb(7.843138%,41.568628%,99.607843%);fill-opacity:1;" d="M 49.453125 32.109375 C 49.507812 32.109375 49.566406 32.113281 49.621094 32.113281 C 51.90625 32.164062 54.023438 32.859375 55.625 34.53125 C 57.085938 36.066406 57.320312 38.027344 57.277344 40.058594 C 57.257812 40.53125 57.183594 40.957031 57.03125 41.40625 C 57 41.5 56.96875 41.597656 56.9375 41.695312 C 56.683594 42.410156 56.324219 42.996094 55.859375 43.59375 C 55.808594 43.65625 55.757812 43.722656 55.707031 43.789062 C 54.515625 45.222656 52.605469 46.015625 50.78125 46.226562 C 48.105469 46.449219 45.054688 46.433594 42.84375 44.671875 C 42.726562 44.574219 42.613281 44.476562 42.5 44.375 C 42.382812 44.289062 42.382812 44.289062 42.261719 44.199219 C 40.941406 43.078125 40.449219 41.265625 40.3125 39.609375 C 40.210938 37.894531 40.648438 36.113281 41.738281 34.761719 C 43.117188 33.210938 44.933594 32.28125 47.027344 32.152344 C 47.085938 32.148438 47.144531 32.148438 47.203125 32.144531 C 47.261719 32.140625 47.324219 32.136719 47.386719 32.132812 C 48.074219 32.101562 48.761719 32.09375 49.453125 32.109375 Z M 44.921875 36.640625 C 44.257812 37.472656 44.082031 38.601562 44.160156 39.640625 C 44.308594 40.773438 44.726562 41.707031 45.617188 42.453125 C 46.878906 43.390625 48.347656 43.519531 49.878906 43.335938 C 50.621094 43.214844 51.257812 42.929688 51.875 42.5 C 51.925781 42.464844 51.980469 42.429688 52.03125 42.394531 C 52.820312 41.792969 53.207031 40.875 53.359375 39.921875 C 53.476562 38.621094 53.179688 37.394531 52.335938 36.382812 C 51.386719 35.394531 50.019531 35.027344 48.6875 34.976562 C 47.21875 35.011719 45.894531 35.523438 44.921875 36.640625 Z M 44.921875 36.640625 "/>
    <path style="stroke:none;fill-rule:nonzero;fill:rgb(7.450981%,41.176471%,99.607843%);fill-opacity:1;" d="M 27.65625 32.1875 C 28.738281 32.1875 29.820312 32.1875 30.9375 32.1875 C 30.9375 35.667969 30.9375 39.148438 30.9375 42.734375 C 33.800781 42.734375 36.660156 42.734375 39.609375 42.734375 C 39.609375 43.816406 39.609375 44.898438 39.609375 46.015625 C 39.296875 46.078125 39.050781 46.101562 38.734375 46.101562 C 38.589844 46.101562 38.589844 46.101562 38.441406 46.101562 C 38.335938 46.101562 38.226562 46.101562 38.121094 46.101562 C 38.007812 46.101562 37.894531 46.101562 37.78125 46.101562 C 37.472656 46.101562 37.167969 46.101562 36.859375 46.101562 C 36.539062 46.101562 36.21875 46.101562 35.898438 46.101562 C 35.289062 46.101562 34.683594 46.101562 34.074219 46.097656 C 33.382812 46.097656 32.691406 46.097656 32 46.097656 C 30.578125 46.097656 29.15625 46.09375 27.734375 46.09375 C 27.644531 45.804688 27.648438 45.53125 27.648438 45.226562 C 27.648438 45.171875 27.648438 45.117188 27.648438 45.058594 C 27.648438 44.871094 27.648438 44.683594 27.648438 44.496094 C 27.648438 44.363281 27.648438 44.230469 27.648438 44.097656 C 27.648438 43.730469 27.648438 43.367188 27.648438 43.003906 C 27.648438 42.625 27.648438 42.246094 27.648438 41.863281 C 27.648438 41.144531 27.648438 40.425781 27.652344 39.703125 C 27.652344 38.882812 27.652344 38.066406 27.652344 37.246094 C 27.652344 35.558594 27.65625 33.875 27.65625 32.1875 Z M 27.65625 32.1875 "/>
  </g>
</svg>